<svg width="75" height="81" viewBox="0 0 75 81" fill="none" xmlns="http://www.w3.org/2000/svg">
<rect width="40" height="40" transform="translate(18)" fill="white"/>
<path d="M49.6667 5H26.3333C24.4924 5 23 6.49238 23 8.33333V31.6667C23 33.5076 24.4924 35 26.3333 35H49.6667C51.5076 35 53 33.5076 53 31.6667V8.33333C53 6.49238 51.5076 5 49.6667 5Z" stroke="#10B989" stroke-width="2" stroke-linecap="round" stroke-linejoin="round"/>
<path d="M32.1666 16.6667C33.5473 16.6667 34.6666 15.5474 34.6666 14.1667C34.6666 12.786 33.5473 11.6667 32.1666 11.6667C30.7859 11.6667 29.6666 12.786 29.6666 14.1667C29.6666 15.5474 30.7859 16.6667 32.1666 16.6667Z" stroke="#10B989" stroke-width="2" stroke-linecap="round" stroke-linejoin="round"/>
<path d="M53 25L44.6667 16.6667L26.3334 35" stroke="#10B989" stroke-width="2" stroke-linecap="round" stroke-linejoin="round"/>
<path d="M63.4474 25V39" stroke="#10B989" stroke-width="2" stroke-linecap="round" stroke-linejoin="round"/>
<path d="M56.7698 32H70.125" stroke="#10B989" stroke-width="2" stroke-linecap="round" stroke-linejoin="round"/>
<path d="M3.94616 61V51.907H0.425156V50.92H8.49616V51.907H4.97516V61H3.94616ZM10.7973 61.21C10.228 61.21 9.74963 61.1073 9.3623 60.902C8.97963 60.6967 8.69263 60.4237 8.5013 60.083C8.30996 59.7423 8.2143 59.3713 8.2143 58.97C8.2143 58.5593 8.29596 58.2093 8.4593 57.92C8.6273 57.626 8.85363 57.3857 9.1383 57.199C9.42763 57.0123 9.7613 56.87 10.1393 56.772C10.522 56.6787 10.9443 56.597 11.4063 56.527C11.873 56.4523 12.328 56.3893 12.7713 56.338C13.2193 56.282 13.6113 56.2283 13.9473 56.177L13.5833 56.401C13.5973 55.6543 13.4526 55.1013 13.1493 54.742C12.846 54.3827 12.3186 54.203 11.5673 54.203C11.0493 54.203 10.6106 54.3197 10.2513 54.553C9.89663 54.7863 9.64696 55.155 9.5023 55.659L8.5013 55.365C8.67396 54.6883 9.02163 54.1633 9.5443 53.79C10.067 53.4167 10.746 53.23 11.5813 53.23C12.272 53.23 12.8576 53.3607 13.3383 53.622C13.8236 53.8787 14.1666 54.252 14.3673 54.742C14.4606 54.9613 14.5213 55.2063 14.5493 55.477C14.5773 55.7477 14.5913 56.023 14.5913 56.303V61H13.6743V59.103L13.9403 59.215C13.6836 59.8637 13.2846 60.3583 12.7433 60.699C12.202 61.0397 11.5533 61.21 10.7973 61.21ZM10.9163 60.321C11.397 60.321 11.817 60.2347 12.1763 60.062C12.5356 59.8893 12.825 59.6537 13.0443 59.355C13.2636 59.0517 13.406 58.711 13.4713 58.333C13.5273 58.0903 13.5576 57.8243 13.5623 57.535C13.567 57.241 13.5693 57.0217 13.5693 56.877L13.9613 57.08C13.6113 57.1267 13.231 57.1733 12.8203 57.22C12.4143 57.2667 12.013 57.3203 11.6163 57.381C11.2243 57.4417 10.8696 57.514 10.5523 57.598C10.3376 57.6587 10.13 57.745 9.9293 57.857C9.72863 57.9643 9.56296 58.109 9.4323 58.291C9.3063 58.473 9.2433 58.6993 9.2433 58.97C9.2433 59.1893 9.29696 59.4017 9.4043 59.607C9.5163 59.8123 9.69363 59.9827 9.9363 60.118C10.1836 60.2533 10.5103 60.321 10.9163 60.321ZM25.4296 61L25.4366 56.037C25.4366 55.4537 25.2733 54.9963 24.9466 54.665C24.6246 54.329 24.2139 54.161 23.7146 54.161C23.4299 54.161 23.1523 54.2263 22.8816 54.357C22.6109 54.4877 22.3869 54.6977 22.2096 54.987C22.0369 55.2763 21.9506 55.6543 21.9506 56.121L21.3416 55.946C21.3276 55.4047 21.4326 54.931 21.6566 54.525C21.8853 54.119 22.1979 53.804 22.5946 53.58C22.9959 53.3513 23.4486 53.237 23.9526 53.237C24.7133 53.237 25.3223 53.4727 25.7796 53.944C26.2369 54.4107 26.4656 55.043 26.4656 55.841L26.4586 61H25.4296ZM16.4066 61V53.44H17.3306V55.302H17.4426V61H16.4066ZM20.9286 61L20.9356 56.107C20.9356 55.505 20.7746 55.0313 20.4526 54.686C20.1353 54.336 19.7153 54.161 19.1926 54.161C18.6699 54.161 18.2476 54.3407 17.9256 54.7C17.6036 55.0547 17.4426 55.5283 17.4426 56.121L16.8266 55.785C16.8266 55.2997 16.9409 54.8657 17.1696 54.483C17.3983 54.0957 17.7109 53.7923 18.1076 53.573C18.5043 53.349 18.9546 53.237 19.4586 53.237C19.9393 53.237 20.3663 53.3397 20.7396 53.545C21.1176 53.7503 21.4139 54.049 21.6286 54.441C21.8433 54.833 21.9506 55.309 21.9506 55.869L21.9436 61H20.9286ZM31.6758 61.21C30.9804 61.21 30.3924 61.035 29.9118 60.685C29.4311 60.3303 29.0671 59.852 28.8198 59.25C28.5724 58.6433 28.4488 57.9643 28.4488 57.213C28.4488 56.4477 28.5724 55.7663 28.8198 55.169C29.0718 54.567 29.4404 54.0933 29.9258 53.748C30.4111 53.4027 31.0084 53.23 31.7178 53.23C32.4084 53.23 33.0011 53.405 33.4958 53.755C33.9904 54.105 34.3684 54.581 34.6298 55.183C34.8958 55.785 35.0288 56.4617 35.0288 57.213C35.0288 57.969 34.8958 58.648 34.6298 59.25C34.3638 59.852 33.9811 60.3303 33.4818 60.685C32.9824 61.035 32.3804 61.21 31.6758 61.21ZM28.2738 61V50.92H29.3098V55.309H29.1978V61H28.2738ZM31.5708 60.251C32.0981 60.251 32.5368 60.118 32.8868 59.852C33.2368 59.586 33.4981 59.2243 33.6708 58.767C33.8481 58.305 33.9368 57.787 33.9368 57.213C33.9368 56.6437 33.8504 56.1303 33.6778 55.673C33.5051 55.2157 33.2414 54.854 32.8868 54.588C32.5368 54.322 32.0911 54.189 31.5498 54.189C31.0224 54.189 30.5838 54.3173 30.2338 54.574C29.8884 54.8307 29.6294 55.1877 29.4568 55.645C29.2841 56.0977 29.1978 56.6203 29.1978 57.213C29.1978 57.7963 29.2841 58.319 29.4568 58.781C29.6294 59.2383 29.8908 59.5977 30.2408 59.859C30.5908 60.1203 31.0341 60.251 31.5708 60.251ZM38.7289 61.21C38.1596 61.21 37.6813 61.1073 37.2939 60.902C36.9113 60.6967 36.6243 60.4237 36.4329 60.083C36.2416 59.7423 36.1459 59.3713 36.1459 58.97C36.1459 58.5593 36.2276 58.2093 36.3909 57.92C36.5589 57.626 36.7853 57.3857 37.0699 57.199C37.3593 57.0123 37.6929 56.87 38.0709 56.772C38.4536 56.6787 38.8759 56.597 39.3379 56.527C39.8046 56.4523 40.2596 56.3893 40.7029 56.338C41.1509 56.282 41.5429 56.2283 41.8789 56.177L41.5149 56.401C41.5289 55.6543 41.3843 55.1013 41.0809 54.742C40.7776 54.3827 40.2503 54.203 39.4989 54.203C38.9809 54.203 38.5423 54.3197 38.1829 54.553C37.8283 54.7863 37.5786 55.155 37.4339 55.659L36.4329 55.365C36.6056 54.6883 36.9533 54.1633 37.4759 53.79C37.9986 53.4167 38.6776 53.23 39.5129 53.23C40.2036 53.23 40.7893 53.3607 41.2699 53.622C41.7553 53.8787 42.0983 54.252 42.2989 54.742C42.3923 54.9613 42.4529 55.2063 42.4809 55.477C42.5089 55.7477 42.5229 56.023 42.5229 56.303V61H41.6059V59.103L41.8719 59.215C41.6153 59.8637 41.2163 60.3583 40.6749 60.699C40.1336 61.0397 39.4849 61.21 38.7289 61.21ZM38.8479 60.321C39.3286 60.321 39.7486 60.2347 40.1079 60.062C40.4673 59.8893 40.7566 59.6537 40.9759 59.355C41.1953 59.0517 41.3376 58.711 41.4029 58.333C41.4589 58.0903 41.4893 57.8243 41.4939 57.535C41.4986 57.241 41.5009 57.0217 41.5009 56.877L41.8929 57.08C41.5429 57.1267 41.1626 57.1733 40.7519 57.22C40.3459 57.2667 39.9446 57.3203 39.5479 57.381C39.1559 57.4417 38.8013 57.514 38.4839 57.598C38.2693 57.6587 38.0616 57.745 37.8609 57.857C37.6603 57.9643 37.4946 58.109 37.3639 58.291C37.2379 58.473 37.1749 58.6993 37.1749 58.97C37.1749 59.1893 37.2286 59.4017 37.3359 59.607C37.4479 59.8123 37.6253 59.9827 37.8679 60.118C38.1153 60.2533 38.4419 60.321 38.8479 60.321ZM49.8052 61V57.143C49.8052 56.723 49.7656 56.338 49.6862 55.988C49.6069 55.6333 49.4786 55.3253 49.3012 55.064C49.1286 54.798 48.9022 54.5927 48.6222 54.448C48.3469 54.3033 48.0109 54.231 47.6142 54.231C47.2502 54.231 46.9282 54.294 46.6482 54.42C46.3729 54.546 46.1396 54.728 45.9482 54.966C45.7616 55.1993 45.6192 55.484 45.5212 55.82C45.4232 56.156 45.3742 56.5387 45.3742 56.968L44.6462 56.807C44.6462 56.0323 44.7816 55.3813 45.0522 54.854C45.3229 54.3267 45.6962 53.9277 46.1722 53.657C46.6482 53.3863 47.1942 53.251 47.8102 53.251C48.2629 53.251 48.6572 53.321 48.9932 53.461C49.3339 53.601 49.6209 53.79 49.8542 54.028C50.0922 54.266 50.2836 54.539 50.4282 54.847C50.5729 55.1503 50.6779 55.4747 50.7432 55.82C50.8086 56.1607 50.8412 56.5013 50.8412 56.842V61H49.8052ZM44.3382 61V50.92H45.2692V56.611H45.3742V61H44.3382ZM52.6507 61L52.6577 50.92H53.6937V57.08L57.0677 53.44H58.4397L54.8977 57.22L58.9017 61H57.4037L53.6937 57.36V61H52.6507ZM61.766 61.21C61.1967 61.21 60.7184 61.1073 60.331 60.902C59.9484 60.6967 59.6614 60.4237 59.47 60.083C59.2787 59.7423 59.183 59.3713 59.183 58.97C59.183 58.5593 59.2647 58.2093 59.428 57.92C59.596 57.626 59.8224 57.3857 60.107 57.199C60.3964 57.0123 60.73 56.87 61.108 56.772C61.4907 56.6787 61.913 56.597 62.375 56.527C62.8417 56.4523 63.2967 56.3893 63.74 56.338C64.188 56.282 64.58 56.2283 64.916 56.177L64.552 56.401C64.566 55.6543 64.4214 55.1013 64.118 54.742C63.8147 54.3827 63.2874 54.203 62.536 54.203C62.018 54.203 61.5794 54.3197 61.22 54.553C60.8654 54.7863 60.6157 55.155 60.471 55.659L59.47 55.365C59.6427 54.6883 59.9904 54.1633 60.513 53.79C61.0357 53.4167 61.7147 53.23 62.55 53.23C63.2407 53.23 63.8264 53.3607 64.307 53.622C64.7924 53.8787 65.1354 54.252 65.336 54.742C65.4294 54.9613 65.49 55.2063 65.518 55.477C65.546 55.7477 65.56 56.023 65.56 56.303V61H64.643V59.103L64.909 59.215C64.6524 59.8637 64.2534 60.3583 63.712 60.699C63.1707 61.0397 62.522 61.21 61.766 61.21ZM61.885 60.321C62.3657 60.321 62.7857 60.2347 63.145 60.062C63.5044 59.8893 63.7937 59.6537 64.013 59.355C64.2324 59.0517 64.3747 58.711 64.44 58.333C64.496 58.0903 64.5264 57.8243 64.531 57.535C64.5357 57.241 64.538 57.0217 64.538 56.877L64.93 57.08C64.58 57.1267 64.1997 57.1733 63.789 57.22C63.383 57.2667 62.9817 57.3203 62.585 57.381C62.193 57.4417 61.8384 57.514 61.521 57.598C61.3064 57.6587 61.0987 57.745 60.898 57.857C60.6974 57.9643 60.5317 58.109 60.401 58.291C60.275 58.473 60.212 58.6993 60.212 58.97C60.212 59.1893 60.2657 59.4017 60.373 59.607C60.485 59.8123 60.6624 59.9827 60.905 60.118C61.1524 60.2533 61.479 60.321 61.885 60.321ZM72.8423 61V57.143C72.8423 56.723 72.8027 56.338 72.7233 55.988C72.644 55.6333 72.5157 55.3253 72.3383 55.064C72.1657 54.798 71.9393 54.5927 71.6593 54.448C71.384 54.3033 71.048 54.231 70.6513 54.231C70.2873 54.231 69.9653 54.294 69.6853 54.42C69.41 54.546 69.1767 54.728 68.9853 54.966C68.7987 55.1993 68.6563 55.484 68.5583 55.82C68.4603 56.156 68.4113 56.5387 68.4113 56.968L67.6833 56.807C67.6833 56.0323 67.8187 55.3813 68.0893 54.854C68.36 54.3267 68.7333 53.9277 69.2093 53.657C69.6853 53.3863 70.2313 53.251 70.8473 53.251C71.3 53.251 71.6943 53.321 72.0303 53.461C72.371 53.601 72.658 53.79 72.8913 54.028C73.1293 54.266 73.3207 54.539 73.4653 54.847C73.61 55.1503 73.715 55.4747 73.7803 55.82C73.8457 56.1607 73.8783 56.5013 73.8783 56.842V61H72.8423ZM67.3753 61V53.44H68.3063V55.302H68.4113V61H67.3753ZM24.104 80V69.92H29.893V70.949H25.133V74.449H29.053V75.471H25.133V80H24.104ZM34.1106 80.21C33.3593 80.21 32.7176 80.0397 32.1856 79.699C31.6536 79.3583 31.2453 78.887 30.9606 78.285C30.676 77.683 30.5336 76.9923 30.5336 76.213C30.5336 75.4197 30.6783 74.7243 30.9676 74.127C31.257 73.5297 31.6676 73.0653 32.1996 72.734C32.7363 72.398 33.3733 72.23 34.1106 72.23C34.8666 72.23 35.5106 72.4003 36.0426 72.741C36.5793 73.077 36.9876 73.546 37.2676 74.148C37.5523 74.7453 37.6946 75.4337 37.6946 76.213C37.6946 77.0063 37.5523 77.704 37.2676 78.306C36.983 78.9033 36.5723 79.37 36.0356 79.706C35.499 80.042 34.8573 80.21 34.1106 80.21ZM34.1106 79.223C34.9506 79.223 35.576 78.9453 35.9866 78.39C36.3973 77.83 36.6026 77.1043 36.6026 76.213C36.6026 75.2983 36.395 74.5703 35.9796 74.029C35.569 73.4877 34.946 73.217 34.1106 73.217C33.546 73.217 33.0793 73.3453 32.7106 73.602C32.3466 73.854 32.0736 74.2063 31.8916 74.659C31.7143 75.107 31.6256 75.625 31.6256 76.213C31.6256 77.123 31.8356 77.8533 32.2556 78.404C32.6756 78.95 33.294 79.223 34.1106 79.223ZM43.3548 80C42.9301 80.0887 42.5101 80.1237 42.0948 80.105C41.6841 80.0863 41.3155 79.9977 40.9888 79.839C40.6668 79.6803 40.4218 79.433 40.2538 79.097C40.1185 78.817 40.0438 78.5347 40.0298 78.25C40.0205 77.9607 40.0158 77.6317 40.0158 77.263V70.34H41.0378V77.221C41.0378 77.5383 41.0401 77.8043 41.0448 78.019C41.0541 78.229 41.1031 78.4157 41.1918 78.579C41.3598 78.8917 41.6258 79.0783 41.9898 79.139C42.3585 79.1997 42.8135 79.1857 43.3548 79.097V80ZM38.3988 73.322V72.44H43.3548V73.322H38.3988ZM47.7278 80.21C46.9765 80.21 46.3348 80.0397 45.8028 79.699C45.2708 79.3583 44.8625 78.887 44.5778 78.285C44.2932 77.683 44.1508 76.9923 44.1508 76.213C44.1508 75.4197 44.2955 74.7243 44.5848 74.127C44.8742 73.5297 45.2848 73.0653 45.8168 72.734C46.3535 72.398 46.9905 72.23 47.7278 72.23C48.4838 72.23 49.1278 72.4003 49.6598 72.741C50.1965 73.077 50.6048 73.546 50.8848 74.148C51.1695 74.7453 51.3118 75.4337 51.3118 76.213C51.3118 77.0063 51.1695 77.704 50.8848 78.306C50.6002 78.9033 50.1895 79.37 49.6528 79.706C49.1162 80.042 48.4745 80.21 47.7278 80.21ZM47.7278 79.223C48.5678 79.223 49.1932 78.9453 49.6038 78.39C50.0145 77.83 50.2198 77.1043 50.2198 76.213C50.2198 75.2983 50.0122 74.5703 49.5968 74.029C49.1862 73.4877 48.5632 73.217 47.7278 73.217C47.1632 73.217 46.6965 73.3453 46.3278 73.602C45.9638 73.854 45.6908 74.2063 45.5088 74.659C45.3315 75.107 45.2428 75.625 45.2428 76.213C45.2428 77.123 45.4528 77.8533 45.8728 78.404C46.2928 78.95 46.9112 79.223 47.7278 79.223Z" fill="#10B989"/>
</svg>
